<?xml version="1.0" encoding="UTF-8" standalone="no"?>
<svg
   version="1.1"
   width="595.27557pt"
   height="841.88977pt"
   id="svg28"
   viewBox="0 0 595.27557 841.88977"
   xmlns="http://www.w3.org/2000/svg"
   xmlns:svg="http://www.w3.org/2000/svg">
  <defs
     id="defs28" />
  <g
     id="Layer1000">
    <path
       d="m 551.8176,420.8761 c 0.0179,67.4195 -26.7488,132.0857 -74.4145,179.7679 -47.6657,47.6824 -112.3217,74.4752 -179.7423,74.4809 -67.421,0.005 -132.0815,-26.7738 -179.7551,-74.4478 C 70.2317,553.0032 43.4526,488.3427 43.458,420.9218 43.4633,353.5014 70.2561,288.8454 117.9388,241.1797 165.621,193.514 230.2872,166.7473 297.7067,166.7649 c 67.394,0.004 132.0267,26.7772 179.6785,74.4324 47.6552,47.6518 74.4288,112.2848 74.4324,179.6788 z"
       style="fill:#bebfc2;fill-rule:evenodd"
       id="path1" />
    <path
       d="m 537.2694,420.8761 c -0.0388,85.536 -45.6993,164.5577 -119.7893,207.3042 -74.0891,42.7453 -165.3554,42.726 -239.4247,-0.0539 C 103.9844,585.3465 58.3569,506.3058 58.3569,420.7698 c 0,-85.5374 45.6275,-164.5795 119.6985,-207.3594 74.0693,-42.7762 165.3356,-42.7975 239.4247,-0.0527 74.09,42.7481 119.7505,121.7684 119.7893,207.3058 0,0.0703 0,0.1409 0,0.2126 z"
       style="fill:#002d61;fill-rule:evenodd"
       id="path2" />
    <path
       d="m 297.7067,192.5361 c -60.5673,-0.0355 -118.6679,23.9918 -161.517,66.7964 -42.8488,42.808 -66.9362,100.8836 -66.9606,161.4512 -0.0246,60.5659 24.0154,118.6625 66.8296,161.5028 42.8159,42.8406 100.8956,66.9155 161.4632,66.9277 60.5675,0.0128 118.6591,-24.0386 161.492,-66.8628 C 501.8428,539.529 525.909,481.4434 525.909,420.8761 525.9229,360.3357 501.8888,302.2677 459.095,259.449 416.3012,216.6266 358.2471,192.557 297.7067,192.5361 Z"
       style="fill:#fdba2f;fill-rule:evenodd"
       id="path3" />
    <path
       d="m 453.9971,420.8761 c 0,88.1201 -70.1093,159.6152 -156.2904,159.6152 -86.4587,0 -156.2908,-71.4951 -156.2908,-159.6152 0,-88.1217 69.8321,-159.4786 156.2908,-159.4786 86.3209,0 156.2904,71.3569 156.2904,159.4786 z"
       style="fill:#002d61;fill-rule:evenodd"
       id="path4" />
    <path
       d="m 444.0209,420.8761 c 0,82.4397 -65.3978,149.2243 -146.3142,149.2243 -80.7767,0 -146.3148,-66.7846 -146.3148,-149.2243 0,-82.4405 65.3987,-149.2231 146.3148,-149.2231 80.9164,0 146.3142,66.7826 146.3142,149.2231 z"
       style="fill:#ffffff;fill-rule:evenodd"
       id="path5" />
    <path
       d="m 137.2586,376.2608 -1.5222,5.8195 -46.6922,-11.501 1.5222,-5.9573 z"
       style="fill:#002d61;fill-rule:evenodd"
       id="path6" />
    <path
       d="m 143.7712,304.4881 20.0926,15.3814 -3.464,4.5708 -38.1035,-29.2334 1.9403,-2.6334 27.5717,7.2054 -20.7828,-15.9358 3.464,-4.5717 38.1022,29.0965 -1.802,2.7714 z"
       style="fill:#002d61;fill-rule:evenodd"
       id="path7" />
    <path
       d="m 192.9594,230.6382 9.4215,-4.8506 c 4.0184,-2.0758 9.0068,-1.9381 11.6394,3.0504 5.9573,11.9145 8.7287,17.0441 14.8257,28.6798 0.9803,1.9734 1.0891,4.2647 0.2988,6.3192 -0.79,2.0546 -2.4074,3.6856 -4.4572,4.4904 l -9.8362,4.9884 z m 25.0787,35.1936 v 0 l 2.4936,-1.3876 c 2.0506,-0.8084 3.0547,-3.1277 2.2425,-5.1789 -0.0482,-0.1236 -0.1034,-0.2435 -0.1644,-0.36 -4.9875,-9.7013 -8.5895,-16.6277 -13.5774,-26.4631 -0.8994,-1.885 -3.1527,-2.683 -5.0349,-1.7864 -0.0788,0.0388 -0.1559,0.0777 -0.2301,0.1202 l -2.9104,1.525 z"
       style="fill:#002d61;fill-rule:evenodd"
       id="path8" />
    <path
       d="m 291.6116,251.1458 -5.9587,0.4164 -2.772,-48.0787 6.3754,-0.4167 z"
       style="fill:#002d61;fill-rule:evenodd"
       id="path9" />
    <path
       d="m 361.7195,263.89 2.0778,-9.2811 -8.0357,-3.0501 -4.85,8.1759 -5.6801,-2.2169 25.6331,-41.7031 5.9573,2.2136 -9.1443,48.0821 z m 6.6504,-32.8351 v 0 l -0.2773,-0.1377 -9.8365,16.211 6.5121,2.3548 z"
       style="fill:#002d61;fill-rule:evenodd"
       id="path10" />
    <path
       d="m 433.2144,282.597 -18.5655,17.4572 -4.0213,-4.155 35.0561,-32.9766 2.0792,2.2172 -11.5019,26.3251 19.2615,-18.1491 3.8761,4.1553 -35.0521,32.9763 -2.217,-2.3584 z"
       style="fill:#002d61;fill-rule:evenodd"
       id="path11" />
    <path
       d="m 457.1853,372.1043 8.4515,-4.2956 -2.7718,-8.1748 -9.422,1.5242 -1.9384,-5.8198 48.6335,-6.5115 2.0758,5.9587 -42.9528,23.4156 z m 29.7881,-15.3799 v 0 l -0.2752,-0.4153 -18.7073,2.6326 2.2176,6.5117 z"
       style="fill:#002d61;fill-rule:evenodd"
       id="path12" />
    <path
       d="m 106.3621,521.1894 -2.9106,-5.542 42.5379,-22.03 7.0659,13.4399 c 1.3858,2.7703 0.6933,4.8487 -1.3862,5.9576 -7.6201,3.8789 -11.4996,5.9587 -19.1199,9.9757 -0.9763,0.5638 -2.151,0.6743 -3.2157,0.3018 -1.0646,-0.3724 -1.9145,-1.1914 -2.3264,-2.241 l -4.2959,-8.3138 z m 20.9217,-10.9451 v 0 l 3.4642,6.5114 17.0419,-9.0059 -3.4636,-6.512 z"
       style="fill:#002d61;fill-rule:evenodd"
       id="path13" />
    <path
       d="m 169.8211,597.6721 4.7109,-8.3137 -6.9285,-5.4031 -7.0659,6.2345 -4.7103,-3.74 36.8549,-32.1446 4.9881,4.0172 -22.8614,43.2292 z m 16.488,-29.3743 v 0 l -0.2775,-0.4147 -14.1325,12.4702 5.4035,4.2942 z"
       style="fill:#002d61;fill-rule:evenodd"
       id="path14" />
    <path
       d="m 255.1711,619.148 6.0956,1.525 -3.0481,12.3313 c -0.2092,0.9927 -0.8067,1.8615 -1.6574,2.4143 -0.8498,0.5533 -1.8861,0.7463 -2.8797,0.5366 -0.0575,-0.0122 -0.1154,-0.0261 -0.1735,-0.0412 -4.2956,-0.9708 -7.2054,-1.8011 -11.6387,-2.9097 -1.0112,-0.2276 -1.889,-0.8456 -2.4441,-1.7215 -0.5539,-0.8739 -0.739,-1.9329 -0.5113,-2.9438 0.0138,-0.0621 0.0292,-0.1227 0.0453,-0.1848 3.7417,-15.241 5.8198,-23.6928 9.5607,-38.9339 0.4371,-2.067 2.4684,-3.3882 4.5357,-2.9508 0.0595,0.0122 0.1177,0.0261 0.1752,0.0414 4.2956,0.9691 7.3434,1.94 11.7768,2.9094 2.0945,0.5573 3.3412,2.7086 2.7842,4.8034 l -0.0125,0.0464 -2.3553,9.6988 -6.0964,-1.3859 2.078,-8.5898 -7.2051,-1.6631 -8.867,36.5786 7.2054,1.6628 z"
       style="fill:#002d61;fill-rule:evenodd"
       id="path15" />
    <path
       d="m 343.7065,635.6368 -15.5166,2.9095 -8.314,-47.3856 15.2404,-2.7718 0.8317,5.1271 -9.2831,1.5227 2.7714,15.5192 8.7279,-1.5254 0.8328,5.1276 -8.5916,1.5251 3.0479,16.4874 9.144,-1.5236 z"
       style="fill:#002d61;fill-rule:evenodd"
       id="path16" />
    <path
       d="m 414.5111,605.4306 -5.2674,3.3264 -27.0172,-39.7655 13.1626,-9.006 c 0.8533,-0.7393 2.0002,-1.0454 3.1088,-0.8291 1.1081,0.2165 2.0579,0.9312 2.5699,1.9375 3.7423,5.4031 6.2345,9.0065 9.9762,14.5488 0.7027,0.8688 0.982,2.0021 0.7662,3.0974 -0.2114,1.0947 -0.8966,2.0409 -1.8742,2.5826 l -0.6923,0.5542 17.5953,15.1033 -5.6807,3.8792 -19.8119,-17.4583 -0.1377,-2.2178 4.1556,-2.77 -8.7271,-12.748 -6.5131,4.4351 z"
       style="fill:#002d61;fill-rule:evenodd"
       id="path17" />
    <path
       d="m 463.4195,532.8285 9.5598,6.0964 2.7718,-4.4333 -9.2849,-5.9587 -17.8702,0.9708 c -1.112,0.1352 -2.2348,-0.1091 -3.1878,-0.6939 -3.4631,-2.2158 -4.9885,-3.3248 -8.8682,-5.542 -0.8436,-0.5352 -1.4366,-1.3819 -1.6557,-2.3556 -0.2155,-0.9734 -0.0355,-1.9942 0.4974,-2.8352 l 0.0496,-0.0743 c 1.8009,-3.1873 3.4631,-5.5426 5.4049,-8.5898 0.5156,-0.9252 1.4088,-1.5792 2.4465,-1.7926 1.0381,-0.2126 2.1184,0.0368 2.9552,0.6837 l 8.4549,5.4045 -3.3293,5.1256 -7.3426,-4.7109 -2.768,4.5731 7.2017,4.4334 17.0444,-1.1089 c 1.5004,-0.1927 3.0217,0.1505 4.2928,0.9698 4.4336,2.9097 5.9593,3.7411 10.6719,6.6506 1.8147,1.0882 2.429,3.426 1.3835,5.2651 -1.9377,3.1872 -3.463,5.5426 -5.5423,8.5904 -0.5261,0.9167 -1.4156,1.5621 -2.4499,1.7745 -1.0341,0.2123 -2.111,-0.0304 -2.9549,-0.6662 l -10.531,-6.7887 z"
       style="fill:#002d61;fill-rule:evenodd"
       id="path18" />
    <path
       d="m 251.0135,330.261 -39.6258,179.5666 h 78.4217 c 0,0 8.729,-35.7466 9.4212,-38.9336 h 33.9468 c 25.4943,0.1381 46.2771,-8.4518 60.2711,-24.9395 25.634,-27.8504 21.2004,-68.447 1.9406,-91.7237 -13.7296,-16.6459 -34.2626,-26.1734 -55.8388,-25.9101 H 251.43 Z"
       style="fill:#bebfc2;fill-rule:evenodd"
       id="path19" />
    <path
       d="m 293.5505,463.8281 -9.4218,38.9336 H 220.2545 L 257.11,335.6641 h 82.3023 c 19.5017,-0.2936 38.0729,8.3279 50.4343,23.4156 18.2885,22.0312 20.0894,58.7475 -1.8017,82.4397 -13.4402,15.6575 -33.2527,22.7234 -54.8675,22.4465 z"
       style="fill:#002d61;fill-rule:evenodd"
       id="path20" />
    <path
       d="m 248.5199,373.9055 h 36.0241 c 4.1564,0 8.5912,3.3247 6.7893,8.729 -1.2496,3.4532 -2.1323,7.0305 -2.6329,10.6679 -0.2775,2.6328 2.772,4.4354 4.4348,4.4354 h 73.5719 c 1.3855,0 2.0795,-0.4167 2.0795,-1.1089 0.0289,-1.5804 -0.11,-3.1607 -0.4167,-4.7109 -0.2773,-1.5251 -0.4148,-1.9404 -1.8006,-1.9404 -9.1449,0 -12.8857,-4.1561 -22.5845,-10.2529 -9.5607,-6.2345 -23.6925,-9.8376 -35.8857,-9.8376 h -59.0245 z"
       style="fill:#fdba2f;fill-rule:evenodd"
       id="path21" />
    <path
       d="m 293.1352,421.4303 c -1.2892,-2.918 -2.3553,-5.9284 -3.1867,-9.0062 -0.8314,-3.7412 -4.1578,-6.7887 -9.8379,-6.7887 h -38.6563 l 1.1072,-4.2957 125.3936,0.1375 c 1.1087,0 0.9695,0.5548 0.8315,1.9406 0,1.3856 -0.4167,3.8792 -0.5542,5.4029 -0.1398,1.663 -1.3862,1.2478 -2.4951,1.2478 -3.9588,-0.1043 -7.8602,0.9558 -11.2223,3.0478 -5.1271,4.0184 -16.3494,10.9463 -22.4462,12.7474 -6.7887,1.9389 -31.5901,9.6984 -38.9336,-4.4334 z"
       style="fill:#fdba2f;fill-rule:evenodd"
       id="path22" />
    <path
       d="m 234.6639,437.2252 h 65.3981 c 2.6269,-0.0963 5.2101,0.6843 7.3431,2.2164 6.0801,4.6443 12.9949,8.0779 20.3684,10.1149 3.3259,1.1089 9.2832,-0.2772 14.5482,-3.1867 13.0249,-7.4829 21.4756,-21.4767 24.3854,-30.621 0.6936,-2.3556 -0.6923,-2.2158 -2.3554,-2.0781 -5.5425,0.415 -11.3618,5.4043 -18.9824,10.3919 -7.7585,4.7109 -23.1381,9.4217 -37.9642,9.4217 h -71.7704 z"
       style="fill:#fdba2f;fill-rule:evenodd"
       id="path23" />
    <path
       d="m 330.8221,349.5204 c 1.9786,-0.3795 4.0216,-0.2857 5.9573,0.2759 12.6085,4.9892 24.2476,17.8747 29.2354,31.5915 0.9698,2.7706 1.2464,4.2942 0,4.4337 -5.68,0.6922 -8.1748,-2.2173 -15.1032,-6.6509 -6.5501,-4.4816 -13.7441,-7.939 -21.3376,-10.253 -8.4517,-2.6325 -23.6922,-3.187 -25.4933,-3.187 -1.9406,0 -1.8017,-0.8316 -0.9698,-1.663 7.4962,-7.6164 17.1839,-12.7024 27.7112,-14.5472 z"
       style="fill:#fdba2f;fill-rule:evenodd"
       id="path24" />
    <path
       d="m 390.4016,396.6289 c -0.0459,0.6689 -0.578,1.2024 -1.2484,1.2463 h -14.4094 c -1.8014,0 -1.8014,-0.8314 -1.8014,-1.94 -0.2956,-1.4593 -0.4354,-2.9443 -0.4158,-4.4334 0,-1.1089 -0.5548,-2.4933 1.1083,-3.1872 3.951,-2.02 7.2264,-5.1492 9.4215,-9.0049 0.4167,-1.1086 1.3865,-2.9097 2.3553,-1.3858 3.6034,5.4028 4.7124,12.0537 4.9899,18.705 z"
       style="fill:#fdba2f;fill-rule:evenodd"
       id="path25" />
    <path
       d="m 385.2743,422.3995 c -0.1392,0.5544 -1.2467,0.9694 -1.3865,0 -2.0488,-4.8841 -5.786,-8.8665 -10.5298,-11.2221 -0.9697,-0.5542 -0.9697,-1.2478 -0.9697,-2.3553 0.1383,-0.9709 0.5541,-4.2956 0.6925,-5.5423 0,-1.1086 0.5541,-1.9401 1.3861,-1.9401 h 14.9635 c 0.4162,0 1.1087,0.5542 1.1087,0.8315 -0.2177,7.0523 -2.0177,13.9651 -5.2648,20.2283 z"
       style="fill:#fdba2f;fill-rule:evenodd"
       id="path26" />
    <path
       d="m 346.4785,450.3879 c -1.1092,0.2775 -3.4645,-0.1389 0.1389,-2.2173 10.807,-6.3739 20.6438,-21.0602 23.1383,-29.6498 1.1089,-3.3262 1.1089,-3.4642 2.4937,-3.0492 2.59,1.1667 4.7984,3.0393 6.3737,5.4045 1.9403,2.77 2.9097,8.3126 1.6628,9.6982 -8.1927,10.8309 -20.3553,17.9589 -33.8074,19.8136 z"
       style="fill:#fdba2f;fill-rule:evenodd"
       id="path27" />
    <path
       d="m 374.0513,383.4662 c -2.4944,1.3844 -3.0486,0.9694 -3.6031,-0.8317 -4.7109,-16.4889 -18.705,-28.8199 -24.385,-32.5613 -0.9706,-0.5528 -0.8317,-1.1075 0,-0.9695 13.5777,1.9404 27.0176,9.2838 33.6688,19.3987 4.0184,5.8181 -3.1867,13.5779 -5.6807,14.9638 z"
       style="fill:#fdba2f;fill-rule:evenodd"
       id="path28" />
  </g>
</svg>
